<svg xmlns="http://www.w3.org/2000/svg" viewBox="0 0 193.06 58"><defs><style>.a{font-size:24px;font-family:Garamond-Bold, Garamond;font-weight:700;}.b{letter-spacing:0.03em;}.c{font-size:16px;font-family:Garamond-Italic, Garamond;font-style:italic;}.d{letter-spacing:0.01em;}.e{letter-spacing:-0.01em;}.f{font-size:32px;}.f,.g{fill:#fff;font-family:MonotypeCorsiva, Monotype Corsiva;}.g{font-size:33px;}</style></defs><circle cx="29.44" cy="29" r="29"/><text class="a" transform="translate(65.51 26.57)">Moe Riche<tspan class="b" x="111" y="0">r</tspan><tspan x="120.05" y="0">t</tspan></text><text class="c" transform="translate(96.26 46.01)">Ca<tspan class="d" x="16.5" y="0">r</tspan><tspan x="21.53" y="0">t</tspan><tspan class="e" x="25.53" y="0">o</tspan><tspan x="30.98" y="0">grap</tspan><tspan class="e" x="53.98" y="0">h</tspan><tspan x="60.44" y="0">y</tspan></text><text class="f" transform="translate(0 27.86)">M</text><text class="g" transform="translate(22.43 36.93)">R</text><text class="g" transform="translate(37.26 44.06)">P</text><path d="M485.11,550a12.26,12.26,0,0,1-.94-1.44,11.71,11.71,0,0,1-.7-1.49.5.5,0,0,0-.61-.34.5.5,0,0,0-.35.61,13.19,13.19,0,0,0,1.73,3.17.52.52,0,0,0,.69.17A.51.51,0,0,0,485.11,550Z" transform="translate(-441.28 -510.64)"/></svg>